<svg xmlns="http://www.w3.org/2000/svg" height="512pt" viewBox="-25 0 512 512.001" width="512pt"><path d="M266.438 104.96h56.519l-86.508-91.003v60.898c0 16.497 13.38 30.106 29.988 30.106zm57.554 131.376c-76.008 0-137.832 61.82-137.832 137.832C186.16 450.176 247.984 512 323.992 512c76.012 0 137.836-61.824 137.836-137.832 0-76.012-61.824-137.832-137.836-137.832zm74.051 149.598l-67.59 72.546c-1.73 1.848-4.152 2.887-6.805 2.887-2.652 0-4.96-1.039-6.691-2.887l-67.473-72.546c-3.46-3.692-3.23-9.575.461-13.036 3.692-3.46 9.688-3.23 13.149.461l51.672 55.364V296.887c0-5.075 4.152-9.227 9.226-9.227 5.078 0 9.23 4.152 9.23 9.227v131.836l51.442-55.364c3.461-3.691 9.227-3.921 12.918-.46 3.805 3.46 3.922 9.226.461 13.035zm0 0"/><path d="M172.668 334.488H72.434c-5.075 0-9.227-4.148-9.227-9.226 0-5.075 4.152-9.227 9.227-9.227H178.78c5.88-14.992 13.723-27.683 23.414-40.37H72.434c-5.075 0-9.227-4.15-9.227-9.228 0-5.074 4.152-9.226 9.227-9.226h147.293c27.68-24.223 64.359-39.676 104.382-39.676 3.805 0 6.922.344 11.536.692v-94.813h-69.207c-26.758 0-48.442-21.914-48.442-48.559V0H41.062C18.223 0 0 18.684 0 41.637V393.66c0 22.953 18.223 41.176 41.063 41.176h138.984c-7.957-18.453-12.34-39.215-12.34-60.899-.117-13.609 1.73-26.761 4.961-39.449zM72.434 199.54h116.843c5.075 0 9.227 4.152 9.227 9.23 0 5.075-4.152 9.227-9.227 9.227H72.434c-5.075 0-9.227-4.152-9.227-9.226 0-5.079 4.152-9.23 9.227-9.23zm0 0"/></svg>