<svg xmlns="http://www.w3.org/2000/svg" viewBox="0 0 428.408 428.408"><circle cx="94.041" cy="214.204" r="57.469"/><path d="M381.388 172.408H177.633c-5.771 0-10.449 4.678-10.449 10.449s4.678 10.449 10.449 10.449h203.755c5.771 0 10.449-4.678 10.449-10.449s-4.678-10.449-10.449-10.449zM177.633 256h109.714c5.771 0 10.449-4.678 10.449-10.449s-4.678-10.449-10.449-10.449H177.633c-5.771 0-10.449 4.678-10.449 10.449S171.862 256 177.633 256z"/><circle cx="94.041" cy="57.469" r="57.469"/><path d="M177.633 36.571h203.755c5.771 0 10.449-4.678 10.449-10.449s-4.678-10.449-10.449-10.449H177.633c-5.771 0-10.449 4.678-10.449 10.449s4.678 10.449 10.449 10.449zm0 62.694h109.714c5.771 0 10.449-4.678 10.449-10.449s-4.678-10.449-10.449-10.449H177.633c-5.771 0-10.449 4.678-10.449 10.449s4.678 10.449 10.449 10.449z"/><circle cx="94.041" cy="370.939" r="57.469"/><path d="M381.388 329.143H177.633c-5.771 0-10.449 4.678-10.449 10.449s4.678 10.449 10.449 10.449h203.755c5.771 0 10.449-4.678 10.449-10.449s-4.678-10.449-10.449-10.449zm-94.041 62.694H177.633c-5.771 0-10.449 4.678-10.449 10.449s4.678 10.449 10.449 10.449h109.714c5.771 0 10.449-4.678 10.449-10.449s-4.678-10.449-10.449-10.449z"/></svg>