<svg height="512" viewBox="0 -21 384 384" width="512" xmlns="http://www.w3.org/2000/svg"><path d="M362.668 0H21.332C9.578 0 0 9.578 0 21.332V64c0 11.754 9.578 21.332 21.332 21.332h341.336C374.422 85.332 384 75.754 384 64V21.332C384 9.578 374.422 0 362.668 0zm0 128H21.332C9.578 128 0 137.578 0 149.332V192c0 11.754 9.578 21.332 21.332 21.332h341.336c11.754 0 21.332-9.578 21.332-21.332v-42.668c0-11.754-9.578-21.332-21.332-21.332zm0 128H21.332C9.578 256 0 265.578 0 277.332V320c0 11.754 9.578 21.332 21.332 21.332h341.336c11.754 0 21.332-9.578 21.332-21.332v-42.668c0-11.754-9.578-21.332-21.332-21.332zm0 0"/></svg>