<?xml version="1.0" encoding="iso-8859-1"?>
<!-- Generator: Adobe Illustrator 19.0.0, SVG Export Plug-In . SVG Version: 6.00 Build 0)  -->
<svg version="1.1" id="Capa_1" xmlns="http://www.w3.org/2000/svg"
	xmlns:xlink="http://www.w3.org/1999/xlink" x="0px" y="0px"
	viewBox="0 0 512 512" style="enable-background:new 0 0 512 512;" xml:space="preserve">
<path style="fill:#303030;" d="M427.962,50.614L400.104,3.683C398.75,1.399,396.291,0,393.635,0H118.364
	c-2.655,0-5.114,1.399-6.469,3.683L84.038,50.614c-1.38,2.325-1.406,5.212-0.068,7.562c1.338,2.349,3.834,3.801,6.538,3.801h330.985
	c2.703,0,5.2-1.451,6.538-3.802C429.368,55.827,429.342,52.939,427.962,50.614z"/>
<path style="fill:#232323;" d="M380.819,61.978h40.674c2.703,0,5.2-1.451,6.538-3.802c1.338-2.349,1.312-5.237-0.068-7.562
	L400.104,3.683C398.75,1.399,396.291,0,393.635,0h-49.604L380.819,61.978z"/>
<g>
	<path style="fill:#E0E0E0;" d="M427.109,97.415c-1.428-1.602-3.472-2.518-5.617-2.518H90.507c-2.146,0-4.189,0.916-5.616,2.518
		c-1.427,1.602-2.103,3.737-1.857,5.868l9.614,83.256c0.438,3.796,3.653,6.661,7.474,6.661h311.757c3.821,0,7.036-2.864,7.473-6.661
		l9.615-83.256C429.213,101.152,428.537,99.016,427.109,97.415z"/>
	<path style="fill:#E0E0E0;" d="M388.728,378.631H123.271c-2.146,0-4.189,0.916-5.616,2.518c-1.427,1.602-2.103,3.737-1.858,5.868
		l13.664,118.323c0.438,3.796,3.653,6.661,7.474,6.661h238.129c3.821,0,7.036-2.864,7.473-6.661l13.663-118.323
		c0.247-2.132-0.429-4.266-1.857-5.868C392.916,379.547,390.872,378.631,388.728,378.631z"/>
</g>
<g>
	<path style="fill:#C6C6C6;" d="M421.493,94.897H386.25l-11.352,98.302h36.98c3.821,0,7.036-2.864,7.473-6.661l9.615-83.256
		c0.247-2.132-0.429-4.266-1.857-5.868C425.681,95.813,423.638,94.897,421.493,94.897z"/>
	<path style="fill:#C6C6C6;" d="M394.344,381.148c-1.428-1.602-3.472-2.518-5.617-2.518h-35.243L338.083,512h36.98
		c3.821,0,7.036-2.864,7.473-6.661l13.663-118.323C396.448,384.885,395.772,382.75,394.344,381.148z"/>
</g>
<path style="fill:#494949;" d="M442.015,46.932H69.985c-4.155,0-7.523,3.368-7.523,7.523v47.966c0,4.155,3.368,7.523,7.523,7.523
	h372.029c4.156,0,7.523-3.368,7.523-7.523V54.455C449.538,50.3,446.17,46.932,442.015,46.932z"/>
<path style="fill:#303030;" d="M442.015,46.932h-45.139v63.012h45.139c4.156,0,7.523-3.368,7.523-7.523V54.455
	C449.538,50.3,446.17,46.932,442.015,46.932z"/>
<path style="fill:#FF9017;" d="M435.138,180.671c-1.428-1.602-3.472-2.518-5.617-2.518H82.477c-2.146,0-4.189,0.916-5.616,2.518
	c-1.427,1.602-2.103,3.737-1.858,5.868l23.15,200.477c0.438,3.796,3.653,6.661,7.474,6.661H406.37c3.822,0,7.036-2.864,7.473-6.661
	l23.15-200.477C437.242,184.408,436.565,182.272,435.138,180.671z"/>
<path style="fill:#ED7D0C;" d="M435.138,180.671c-1.428-1.602-3.472-2.518-5.617-2.518h-35.242l-24.888,215.524h36.98
	c3.822,0,7.036-2.864,7.473-6.661l23.15-200.477C437.242,184.408,436.565,182.272,435.138,180.671z"/>
<path style="fill:#7C3D1E;" d="M256,222.084c-28.013,0-50.804,27.022-50.804,60.236c0,33.214,22.79,60.236,50.804,60.236
	s50.803-27.022,50.803-60.236C306.803,249.105,284.013,222.084,256,222.084z"/>
<path style="fill:#602E18;" d="M256,222.084c-5.59,0-10.967,1.092-16.002,3.078c20.194,7.969,34.801,30.571,34.801,57.156
	c0,26.586-14.607,49.188-34.801,57.157c5.035,1.987,10.411,3.078,16.002,3.078c28.013,0,50.803-27.022,50.803-60.236
	C306.803,249.105,284.013,222.084,256,222.084z"/>
<path style="fill:#472013;" d="M274.798,226.377c-5.159-2.447-10.728-3.923-16.553-4.225l-2.53,2.751
	c-0.035,0.039-0.07,0.077-0.104,0.116c-9.824,11.143-23.051,39.171-2.8,65.484c5.489,7.132,6.808,15.81,3.921,25.793
	c-2.366,8.182-6.727,14.187-6.725,14.186l-7.513,9.896c4.303,1.409,8.829,2.178,13.506,2.178c1.307,0,2.597-0.078,3.88-0.194
	l2.156-2.839c0.236-0.317,5.815-7.887,8.999-18.526c4.44-14.833,2.261-28.55-6.297-39.67c-17.484-22.718,0.95-44.942,2.131-46.319
	L274.798,226.377z"/>
</svg>