<svg xmlns="http://www.w3.org/2000/svg" viewBox="0 0 512 512"><path d="M427.962 50.614L400.104 3.683A7.519 7.519 0 00393.635 0H118.364a7.521 7.521 0 00-6.469 3.683L84.038 50.614a7.523 7.523 0 006.47 11.363h330.985a7.523 7.523 0 006.469-11.363z" fill="#303030"/><path d="M380.819 61.978h40.674a7.523 7.523 0 006.47-11.364L400.104 3.683A7.519 7.519 0 00393.635 0h-49.604l36.788 61.978z" fill="#232323"/><g fill="#e0e0e0"><path d="M427.109 97.415a7.525 7.525 0 00-5.617-2.518H90.507a7.52 7.52 0 00-7.473 8.386l9.614 83.256a7.524 7.524 0 007.474 6.661h311.757a7.521 7.521 0 007.473-6.661l9.615-83.256a7.521 7.521 0 00-1.858-5.868zM388.728 378.631H123.271a7.52 7.52 0 00-5.616 2.518 7.53 7.53 0 00-1.858 5.868l13.664 118.323a7.524 7.524 0 007.474 6.661h238.129a7.521 7.521 0 007.473-6.661L396.2 387.017a7.521 7.521 0 00-7.472-8.386z"/></g><g fill="#c6c6c6"><path d="M421.493 94.897H386.25l-11.352 98.302h36.98a7.521 7.521 0 007.473-6.661l9.615-83.256a7.517 7.517 0 00-1.857-5.868 7.526 7.526 0 00-5.616-2.517zM394.344 381.148a7.525 7.525 0 00-5.617-2.518h-35.243L338.083 512h36.98a7.521 7.521 0 007.473-6.661l13.663-118.323a7.51 7.51 0 00-1.855-5.868z"/></g><path d="M442.015 46.932H69.985a7.523 7.523 0 00-7.523 7.523v47.966a7.523 7.523 0 007.523 7.523h372.029a7.522 7.522 0 007.523-7.523V54.455a7.521 7.521 0 00-7.522-7.523z" fill="#494949"/><path d="M442.015 46.932h-45.139v63.012h45.139a7.522 7.522 0 007.523-7.523V54.455a7.523 7.523 0 00-7.523-7.523z" fill="#303030"/><path d="M435.138 180.671a7.525 7.525 0 00-5.617-2.518H82.477a7.52 7.52 0 00-5.616 2.518 7.53 7.53 0 00-1.858 5.868l23.15 200.477a7.524 7.524 0 007.474 6.661H406.37a7.52 7.52 0 007.473-6.661l23.15-200.477a7.512 7.512 0 00-1.855-5.868z" fill="#ff9017"/><path d="M435.138 180.671a7.525 7.525 0 00-5.617-2.518h-35.242l-24.888 215.524h36.98a7.52 7.52 0 007.473-6.661l23.15-200.477a7.516 7.516 0 00-1.856-5.868z" fill="#ed7d0c"/><path d="M256 222.084c-28.013 0-50.804 27.022-50.804 60.236s22.79 60.236 50.804 60.236 50.803-27.022 50.803-60.236c0-33.215-22.79-60.236-50.803-60.236z" fill="#7c3d1e"/><path d="M256 222.084c-5.59 0-10.967 1.092-16.002 3.078 20.194 7.969 34.801 30.571 34.801 57.156 0 26.586-14.607 49.188-34.801 57.157 5.035 1.987 10.411 3.078 16.002 3.078 28.013 0 50.803-27.022 50.803-60.236 0-33.212-22.79-60.233-50.803-60.233z" fill="#602e18"/><path d="M274.798 226.377c-5.159-2.447-10.728-3.923-16.553-4.225l-2.53 2.751-.104.116c-9.824 11.143-23.051 39.171-2.8 65.484 5.489 7.132 6.808 15.81 3.921 25.793-2.366 8.182-6.727 14.187-6.725 14.186l-7.513 9.896A43.277 43.277 0 00256 342.556c1.307 0 2.597-.078 3.88-.194l2.156-2.839c.236-.317 5.815-7.887 8.999-18.526 4.44-14.833 2.261-28.55-6.297-39.67-17.484-22.718.95-44.942 2.131-46.319l7.929-8.631z" fill="#472013"/></svg>